# xmcd
#
# Track frame offsets: 
#        150
#        14456
#        28219
#        41953
#        53519
#        69059
#        81739
#        97185
#        109352
#        122611
#        137663
#        148162
#        162629
#        182689
#        194500
#        209534
#        219986
#        230629
#        241481
#        250423
#
# Disc length: 3527 seconds
#
# Revision: 0
# Processed by: cddbd v1.5.2PL0 Copyright (c) Steve Scherf et al.
# Submitted via: ExactAudioCopy v1.0b3
#
DISCID=390dc514
DTITLE=Various Artist - Blues Mania
DYEAR=1900
DGENRE=Blues
TTITLE0=Frank Sinatra - Time after time
TTITLE1=Ella Fitzgerald - My man
TTITLE2=Count Basie - Blues in the dark
TTITLE3=Brook Benton - The same one
TTITLE4=Billie Holiday - Yesterdays
TTITLE5=Bessie Smith - Looking for my man blues
TTITLE6=Art. Tatum - Lucille
TTITLE7=Dizzy Gillespie - Ten lessons with Timothy
TTITLE8=Duke Ellington and His Orchestra - Take the "A" train
TTITLE9=Glenn Miller - In the mood
TTITLE10=Nat King Cole - Don't blame me
TTITLE11=Sarah Vaughn - The more I see you
TTITLE12=Sidney Bechet - Blue horizon
TTITLE13=The Mills Brothers - Paper doll
TTITLE14=Woody Herman and His Orchestra - Laura
TTITLE15=Tony Bennett - Anything goes
TTITLE16=Cole Porter - I'm Gigolo
TTITLE17=Dinah Shore - Yes my darling daughter
TTITLE18=Doris Day - My blue heaven
TTITLE19=Fred Aster - The way you look tonight
EXTD=
EXTT0=
EXTT1=
EXTT2=
EXTT3=
EXTT4=
EXTT5=
EXTT6=
EXTT7=
EXTT8=
EXTT9=
EXTT10=
EXTT11=
EXTT12=
EXTT13=
EXTT14=
EXTT15=
EXTT16=
EXTT17=
EXTT18=
EXTT19=
PLAYORDER=
